#!OML:ASF I:\golf\golf\golf 2\Subject 1\2002-09-07\Subject1.ASF
:FULLY-SPECIFIED
:DEGREES
33
root 0.300467 18.1196 -9.35408 9.19471 -1.32028 -5.00893
lowerback -8.6754 0.421557 -2.05438
upperback -0.443447 0.592995 3.74013
thorax 4.34928 0.217837 5.14512
lowerneck -14.2817 0.405127 1.07131
upperneck 41.8396 2.90744 -6.00464
head 18.182 0.52057 -2.47079
rclavicle 1.22004e-014 6.75868e-015
rhumerus -40.7643 33.6401 -100.363
rradius 99.0335
rwrist 5.26573
rhand -18.1532 18.8583
rfingers 7.12502
rthumb 8.12247 -10.9656
lclavicle 1.22004e-014 6.75868e-015
lhumerus -38.701 -31.6862 104.594
lradius 92.7019
lwrist 15.4267
lhand -13.8949 47.402
lfingers 7.12502
lthumb 12.2304 77.0244
rfemur -13.4335 4.55712 20.6446
rtibia 22.672
rfoot -12.7851 -5.76777
rtoes -1.45742
lfemur -13.407 1.42226 -13.2474
ltibia 26.055
lfoot -15.7951 6.78269
ltoes -7.51392
34
root 0.311963 18.1202 -9.34988 9.23238 -1.43863 -5.0204
lowerback -8.81839 0.444508 -2.05185
upperback -0.402384 0.623716 3.72104
thorax 4.46949 0.23004 5.13131
lowerneck -14.2095 0.430923 1.12856
upperneck 41.7507 2.93841 -6.04411
head 18.1127 0.537912 -2.48908
rclavicle 5.06901e-015 5.96354e-015
rhumerus -40.7659 33.6398 -100.387
rradius 99.0549
rwrist 5.22031
rhand -18.2537 19.0041
rfingers 7.12502
rthumb 8.0255 -10.8236
lclavicle 5.06901e-015 5.96354e-015
lhumerus -38.6473 -31.6644 104.569
lradius 92.7418
lwrist 15.5835
lhand -15.2596 48.9168
lfingers 7.12502
lthumb 10.9144 78.6131
rfemur -13.4486 4.73718 20.5952
rtibia 22.6349
rfoot -12.8135 -5.84994
rtoes -1.81729
lfemur -13.4024 1.57536 -13.2819
ltibia 26.0331
lfoot -15.8216 6.69543
ltoes -7.06831
35
root 0.322934 18.1201 -9.34411 9.24228 -1.54353 -4.94249
lowerback -8.91073 0.435008 -2.12393
upperback -0.366655 0.620032 3.67449
thorax 4.55882 0.224601 5.12562
lowerneck -14.1475 0.490047 1.13165
upperneck 41.6426 3.01602 -6.0296
head 18.036 0.572338 -2.46232
rclavicle 6.88292e-015 2.66371e-014
rhumerus -40.7981 33.6277 -100.457
rradius 99.1058
rwrist 5.13993
rhand -18.1531 19.0547
rfingers 7.12502
rthumb 8.1226 -10.7692
lclavicle 6.88292e-015 2.66371e-014
lhumerus -38.569 -31.544 104.484
lradius 92.7684
lwrist 15.508
lhand -16.5155 47.2196
lfingers 7.12502
lthumb 9.70281 76.9761
rfemur -13.4225 4.88835 20.452
rtibia 22.5987
rfoot -12.8318 -5.91538
rtoes -2.08974
lfemur -13.3714 1.79113 -13.4133
ltibia 26.0268
lfoot -15.9287 6.50964
ltoes -6.59772
36
root 0.333487 18.1181 -9.33718 9.17534 -1.49053 -4.88317
lowerback -8.69276 0.354044 -2.24278
upperback -0.423927 0.522682 3.70385
thorax 4.38547 0.178258 5.2068
lowerneck -14.2142 0.559122 1.0656
upperneck 41.6814 3.16445 -6.06309
head 18.0886 0.615126 -2.44122
rclavicle -1.23992e-014 7.95139e-016
rhumerus -40.9376 33.7534 -100.528
rradius 99.1464
rwrist 4.99685
rhand -18.0129 18.876
rfingers 7.12502
rthumb 8.25787 -10.9426
lclavicle -1.23992e-014 7.95139e-016
lhumerus -38.6584 -31.2895 104.534
lradius 92.8281
lwrist 15.3374
lhand -17.5877 47.0408
lfingers 7.12502
lthumb 8.66826 76.8429
rfemur -13.2786 4.93625 20.3673
rtibia 22.5583
rfoot -12.8037 -5.99626
rtoes -1.82279
lfemur -13.3009 2.07816 -13.5032
ltibia 26.042
lfoot -16.0286 6.17181
ltoes -6.48363
37
root 0.347159 18.1159 -9.33708 9.23189 -1.52004 -4.94629
lowerback -8.60911 0.348429 -2.13698
upperback -0.418072 0.504074 3.70791
thorax 4.34745 0.171819 5.14653
lowerneck -14.4982 0.581569 0.991326
upperneck 41.7526 3.22857 -6.0518
head 18.2125 0.625372 -2.41641
rclavicle 8.27441e-015 -4.96962e-014
rhumerus -40.7741 33.8684 -100.454
rradius 99.0955
rwrist 4.86149
rhand -17.9837 18.7943
rfingers 7.12502
rthumb 8.28603 -11.0232
lclavicle 8.27441e-015 -4.96962e-014
lhumerus -38.5435 -31.1914 104.416
lradius 92.7919
lwrist 15.1959
lhand -19.9805 53.6381
lfingers 7.12502
lthumb 6.35865 83.5227
rfemur -13.3213 4.99989 20.3838
rtibia 22.5178
rfoot -12.7586 -6.03367
rtoes -1.85085
lfemur -13.3915 2.3015 -13.4862
ltibia 26.0876
lfoot -16.0478 6.03883
ltoes -6.54202
38
root 0.363791 18.1154 -9.33804 9.32459 -1.68865 -4.98918
lowerback -8.6134 0.428972 -2.0707
upperback -0.414803 0.605723 3.69314
thorax 4.34337 0.223873 5.10529
lowerneck -14.571 0.554737 1.00433
upperneck 41.7319 3.20603 -6.10748
head 18.2206 0.609959 -2.44919
rclavicle -1.05356e-014 1.59028e-015
rhumerus -40.6076 33.823 -100.326
rradius 99.01
rwrist 4.87572
rhand -18.0181 18.8887
rfingers 7.12502
rthumb 8.25285 -10.9302
lclavicle -1.05356e-014 1.59028e-015
lhumerus -38.4476 -31.1921 104.386
lradius 92.6941
lwrist 14.9956
lhand -14.9655 48.7592
lfingers 7.12502
lthumb 11.1981 78.4404
rfemur -13.4271 5.1231 20.3373
rtibia 22.4596
rfoot -12.755 -6.0283
rtoes -2.37426
lfemur -13.5119 2.43622 -13.5335
ltibia 26.1777
lfoot -16.0715 6.1432
ltoes -6.79776
